{
  "accessors": [
    {
      "bufferView": 2,
      "componentType": 5126,
      "count": 17,
      "max": [
        1863.9686279296875,
        1863.9686279296875,
        0.0
      ],
      "min": [
        -1863.9686279296875,
        -1863.9686279296875,
        0.0
      ],
      "type": "VEC3"
    },
    {
      "bufferView": 2,
      "byteOffset": 204,
      "componentType": 5126,
      "count": 17,
      "max": [
        0.0,
        -0.0,
        1.0
      ],
      "min": [
        0.0,
        -0.0,
        1.0
      ],
      "type": "VEC3"
    },
    {
      "bufferView": 1,
      "componentType": 5126,
      "count": 17,
      "max": [
        1.0,
        1.0
      ],
      "min": [
        0.0,
        0.0
      ],
      "type": "VEC2"
    },
    {
      "bufferView": 0,
      "componentType": 5125,
      "count": 48,
      "type": "SCALAR"
    },
    {
      "bufferView": 2,
      "byteOffset": 408,
      "componentType": 5126,
      "count": 436,
      "max": [
        82.8049545288086,
        -689.4041137695313,
        171.71414184570313
      ],
      "min": [
        -404.3963928222656,
        -1178.4923095703125,
        -7.578118801116943
      ],
      "type": "VEC3"
    },
    {
      "bufferView": 2,
      "byteOffset": 5640,
      "componentType": 5126,
      "count": 436,
      "max": [
        0.002244001254439354,
        1.0000004522225936e-06,
        0.9999974966049194
      ],
      "min": [
        -0.9921397566795349,
        -0.992133617401123,
        0.12513497471809387
      ],
      "type": "VEC3"
    },
    {
      "bufferView": 3,
      "componentType": 5126,
      "count": 436,
      "max": [
        1.0,
        7.83934592618607e-05,
        0.00028132490115240216,
        -1.0
      ],
      "min": [
        -1.159403382189339e-06,
        -1.0,
        -1.037684910443204e-06,
        -1.0
      ],
      "type": "VEC4"
    },
    {
      "bufferView": 1,
      "byteOffset": 136,
      "componentType": 5126,
      "count": 436,
      "max": [
        1.0,
        1.0
      ],
      "min": [
        0.0,
        0.0
      ],
      "type": "VEC2"
    },
    {
      "bufferView": 0,
      "byteOffset": 192,
      "componentType": 5125,
      "count": 1296,
      "type": "SCALAR"
    },
    {
      "bufferView": 2,
      "byteOffset": 10872,
      "componentType": 5126,
      "count": 1297,
      "max": [
        700.0,
        700.0,
        179.8312530517578
      ],
      "min": [
        -700.0,
        -700.0,
        151.73126220703125
      ],
      "type": "VEC3"
    },
    {
      "bufferView": 2,
      "byteOffset": 26436,
      "componentType": 5126,
      "count": 1297,
      "max": [
        1.0,
        1.0,
        1.0
      ],
      "min": [
        -1.0,
        -1.0,
        0.0
      ],
      "type": "VEC3"
    },
    {
      "bufferView": 3,
      "byteOffset": 6976,
      "componentType": 5126,
      "count": 1297,
      "max": [
        1.0,
        1.0,
        0.0,
        1.0
      ],
      "min": [
        -0.9999467134475708,
        -1.0,
        0.0,
        1.0
      ],
      "type": "VEC4"
    },
    {
      "bufferView": 1,
      "byteOffset": 3624,
      "componentType": 5126,
      "count": 1297,
      "max": [
        0.8297200202941895,
        0.9993150234222412
      ],
      "min": [
        0.0006849999772384763,
        0.0006849999772384763
      ],
      "type": "VEC2"
    },
    {
      "bufferView": 0,
      "byteOffset": 5376,
      "componentType": 5125,
      "count": 4440,
      "type": "SCALAR"
    },
    {
      "bufferView": 2,
      "byteOffset": 42000,
      "componentType": 5126,
      "count": 1095,
      "max": [
        737.3594970703125,
        737.3594970703125,
        161.1119842529297
      ],
      "min": [
        -737.3594970703125,
        -715.5621948242188,
        0.0
      ],
      "type": "VEC3"
    },
    {
      "bufferView": 2,
      "byteOffset": 55140,
      "componentType": 5126,
      "count": 1095,
      "max": [
        1.0,
        1.0,
        1.0
      ],
      "min": [
        -1.0,
        -1.0,
        -1.0
      ],
      "type": "VEC3"
    },
    {
      "bufferView": 3,
      "byteOffset": 27728,
      "componentType": 5126,
      "count": 1095,
      "max": [
        1.0,
        1.0,
        0.0041829501278698444,
        1.0
      ],
      "min": [
        -1.0,
        -1.0,
        -0.9999997019767761,
        1.0
      ],
      "type": "VEC4"
    },
    {
      "bufferView": 1,
      "byteOffset": 14000,
      "componentType": 5126,
      "count": 1095,
      "max": [
        0.9994620084762573,
        0.9994620084762573
      ],
      "min": [
        0.0005380000220611691,
        0.17176200449466705
      ],
      "type": "VEC2"
    },
    {
      "bufferView": 0,
      "byteOffset": 23136,
      "componentType": 5125,
      "count": 2649,
      "type": "SCALAR"
    },
    {
      "bufferView": 2,
      "byteOffset": 68280,
      "componentType": 5126,
      "count": 104,
      "max": [
        86.02234649658203,
        -687.32177734375,
        177.7245330810547
      ],
      "min": [
        -404.5411376953125,
        -1181.9923095703125,
        -7.7669758796691895
      ],
      "type": "VEC3"
    },
    {
      "bufferView": 2,
      "byteOffset": 69528,
      "componentType": 5126,
      "count": 104,
      "max": [
        1.0,
        1.0,
        1.0
      ],
      "min": [
        -1.0,
        -1.0,
        -0.002694000955671072
      ],
      "type": "VEC3"
    },
    {
      "bufferView": 3,
      "byteOffset": 45248,
      "componentType": 5126,
      "count": 104,
      "max": [
        1.0,
        1.0,
        1.0589269550109748e-05,
        1.0
      ],
      "min": [
        -1.0,
        -1.0,
        -0.002244001254439354,
        1.0
      ],
      "type": "VEC4"
    },
    {
      "bufferView": 1,
      "byteOffset": 22760,
      "componentType": 5126,
      "count": 104,
      "max": [
        0.9994680285453796,
        0.9994680285453796
      ],
      "min": [
        0.0005319999763742089,
        0.02857699990272522
      ],
      "type": "VEC2"
    },
    {
      "bufferView": 0,
      "byteOffset": 33732,
      "componentType": 5125,
      "count": 162,
      "type": "SCALAR"
    },
    {
      "bufferView": 2,
      "byteOffset": 70776,
      "componentType": 5126,
      "count": 1100,
      "max": [
        720.0816040039063,
        720.2207641601563,
        227.49075317382813
      ],
      "min": [
        -720.2207641601563,
        -597.1624145507813,
        151.73126220703125
      ],
      "type": "VEC3"
    },
    {
      "bufferView": 2,
      "byteOffset": 83976,
      "componentType": 5126,
      "count": 1100,
      "max": [
        0.9999969005584717,
        0.999973475933075,
        1.0
      ],
      "min": [
        -0.9999969005584717,
        -0.9999980926513672,
        -1.0
      ],
      "type": "VEC3"
    },
    {
      "bufferView": 1,
      "byteOffset": 23592,
      "componentType": 5126,
      "count": 1100,
      "max": [
        0.995514988899231,
        0.9992719888687134
      ],
      "min": [
        0.0007280000136233866,
        0.0007280000136233866
      ],
      "type": "VEC2"
    },
    {
      "bufferView": 0,
      "byteOffset": 34380,
      "componentType": 5125,
      "count": 2244,
      "type": "SCALAR"
    },
    {
      "bufferView": 2,
      "byteOffset": 97176,
      "componentType": 5126,
      "count": 5096,
      "max": [
        809.8907470703125,
        815.839111328125,
        197.6180877685547
      ],
      "min": [
        -809.8907470703125,
        -792.13232421875,
        96.78620147705078
      ],
      "type": "VEC3"
    },
    {
      "bufferView": 2,
      "byteOffset": 158328,
      "componentType": 5126,
      "count": 5096,
      "max": [
        1.0,
        1.0,
        1.0
      ],
      "min": [
        -1.0,
        -0.9995638728141785,
        -1.0
      ],
      "type": "VEC3"
    },
    {
      "bufferView": 3,
      "byteOffset": 46912,
      "componentType": 5126,
      "count": 5096,
      "max": [
        1.0,
        1.0,
        1.0,
        1.0
      ],
      "min": [
        -0.999563455581665,
        -0.9997853636741638,
        -1.0,
        1.0
      ],
      "type": "VEC4"
    },
    {
      "bufferView": 1,
      "byteOffset": 32392,
      "componentType": 5126,
      "count": 5096,
      "max": [
        0.9976890087127686,
        0.9995099902153015
      ],
      "min": [
        0.0004900000058114529,
        0.0004900000058114529
      ],
      "type": "VEC2"
    },
    {
      "bufferView": 0,
      "byteOffset": 43356,
      "componentType": 5125,
      "count": 12324,
      "type": "SCALAR"
    },
    {
      "bufferView": 2,
      "byteOffset": 219480,
      "componentType": 5126,
      "count": 873,
      "max": [
        707.2999877929688,
        707.2999877929688,
        153.40927124023438
      ],
      "min": [
        -707.2999877929688,
        -701.7227172851563,
        151.40927124023438
      ],
      "type": "VEC3"
    },
    {
      "bufferView": 2,
      "byteOffset": 229956,
      "componentType": 5126,
      "count": 873,
      "max": [
        1.0,
        1.0,
        1.0
      ],
      "min": [
        -1.0,
        -1.0,
        -1.0
      ],
      "type": "VEC3"
    },
    {
      "bufferView": 1,
      "byteOffset": 73160,
      "componentType": 5126,
      "count": 873,
      "max": [
        0.9995099902153015,
        0.9995099902153015
      ],
      "min": [
        0.0004900000058114529,
        0.9635779857635498
      ],
      "type": "VEC2"
    },
    {
      "bufferView": 0,
      "byteOffset": 92652,
      "componentType": 5125,
      "count": 4608,
      "type": "SCALAR"
    },
    {
      "bufferView": 2,
      "byteOffset": 240432,
      "componentType": 5126,
      "count": 29591,
      "max": [
        808.2578125,
        808.2578125,
        172.5104217529297
      ],
      "min": [
        -808.2578125,
        -801.8844604492188,
        108.45702362060547
      ],
      "type": "VEC3"
    },
    {
      "bufferView": 2,
      "byteOffset": 595524,
      "componentType": 5126,
      "count": 29591,
      "max": [
        0.5524262189865112,
        0.548107922077179,
        0.8437548875808716
      ],
      "min": [
        -0.5524262189865112,
        -0.5524262189865112,
        0.8327628970146179
      ],
      "type": "VEC3"
    },
    {
      "bufferView": 3,
      "byteOffset": 128448,
      "componentType": 5126,
      "count": 29591,
      "max": [
        0.9992082715034485,
        0.05163038149476051,
        0.5523636341094971,
        1.0
      ],
      "min": [
        0.8328921794891357,
        0.03312184661626816,
        -0.5523638725280762,
        1.0
      ],
      "type": "VEC4"
    },
    {
      "bufferView": 1,
      "byteOffset": 80144,
      "componentType": 5126,
      "count": 29591,
      "max": [
        0.9857310056686401,
        0.9751880168914795
      ],
      "min": [
        0.020771000534296036,
        0.011819999665021896
      ],
      "type": "VEC2"
    },
    {
      "bufferView": 0,
      "byteOffset": 111084,
      "componentType": 5125,
      "count": 140535,
      "type": "SCALAR"
    },
    {
      "bufferView": 2,
      "byteOffset": 950616,
      "componentType": 5126,
      "count": 582,
      "max": [
        709.72998046875,
        709.72998046875,
        109.63532257080078
      ],
      "min": [
        -709.72998046875,
        -704.133544921875,
        95.57532501220703
      ],
      "type": "VEC3"
    },
    {
      "bufferView": 2,
      "byteOffset": 957600,
      "componentType": 5126,
      "count": 582,
      "max": [
        1.0,
        1.0,
        1.0
      ],
      "min": [
        -1.0,
        -0.987688422203064,
        -1.0
      ],
      "type": "VEC3"
    },
    {
      "bufferView": 3,
      "byteOffset": 601904,
      "componentType": 5126,
      "count": 582,
      "max": [
        0.9876884818077087,
        1.0,
        0.0,
        1.0
      ],
      "min": [
        -1.0,
        -1.0,
        0.0,
        1.0
      ],
      "type": "VEC4"
    },
    {
      "bufferView": 1,
      "byteOffset": 316872,
      "componentType": 5126,
      "count": 582,
      "max": [
        0.9950249791145325,
        0.9983320236206055
      ],
      "min": [
        0.0016680000117048621,
        0.8867620229721069
      ],
      "type": "VEC2"
    },
    {
      "bufferView": 0,
      "byteOffset": 673224,
      "componentType": 5125,
      "count": 1728,
      "type": "SCALAR"
    }
  ],
  "asset": {
    "extras": {
      "author": "ahmagh2e (https://sketchfab.com/ahmagh2e)",
      "license": "CC-BY-4.0 (http://creativecommons.org/licenses/by/4.0/)",
      "source": "https://sketchfab.com/3d-models/heliport-helipad-air-base-helicopter-5bc89e02a58b4ebca7404e5e35da2481",
      "title": "Heliport Helipad air base helicopter"
    },
    "generator": "Sketchfab-15.56.0",
    "version": "2.0"
  },
  "bufferViews": [
    {
      "buffer": 0,
      "byteLength": 680136,
      "name": "floatBufferViews",
      "target": 34963
    },
    {
      "buffer": 0,
      "byteLength": 321528,
      "byteOffset": 680136,
      "byteStride": 8,
      "name": "floatBufferViews",
      "target": 34962
    },
    {
      "buffer": 0,
      "byteLength": 964584,
      "byteOffset": 1001664,
      "byteStride": 12,
      "name": "floatBufferViews",
      "target": 34962
    },
    {
      "buffer": 0,
      "byteLength": 611216,
      "byteOffset": 1966248,
      "byteStride": 16,
      "name": "floatBufferViews",
      "target": 34962
    }
  ],
  "buffers": [
    {
      "byteLength": 2577464,
      "uri": "scene.bin"
    }
  ],
  "extensionsUsed": [
    "KHR_materials_specular",
    "KHR_materials_emissive_strength"
  ],
  "images": [
    {
      "uri": "textures/PELEH_1_baseColor.jpeg"
    },
    {
      "uri": "textures/PELEH_1_normal.png"
    },
    {
      "uri": "textures/badan_1_baseColor.png"
    },
    {
      "uri": "textures/badan_1_metallicRoughness.png"
    },
    {
      "uri": "textures/badan_1_normal.png"
    },
    {
      "uri": "textures/biroon_1_baseColor.png"
    },
    {
      "uri": "textures/biroon_1_metallicRoughness.png"
    },
    {
      "uri": "textures/biroon_1_normal.png"
    },
    {
      "uri": "textures/kenar_peleh_1_baseColor.png"
    },
    {
      "uri": "textures/kenar_peleh_1_metallicRoughness.png"
    },
    {
      "uri": "textures/kenar_peleh_1_normal.png"
    },
    {
      "uri": "textures/lamp_1_baseColor.png"
    },
    {
      "uri": "textures/lamp_1_metallicRoughness.png"
    },
    {
      "uri": "textures/lamp_1_emissive.png"
    },
    {
      "uri": "textures/paye_toori_1_baseColor.png"
    },
    {
      "uri": "textures/paye_toori_1_metallicRoughness.png"
    },
    {
      "uri": "textures/paye_toori_1_emissive.png"
    },
    {
      "uri": "textures/paye_toori_1_normal.png"
    },
    {
      "uri": "textures/toori_1_baseColor.png"
    },
    {
      "uri": "textures/toori_1_metallicRoughness.png"
    },
    {
      "uri": "textures/toori_1_normal.png"
    },
    {
      "uri": "textures/zard_1_baseColor.png"
    },
    {
      "uri": "textures/zard_1_metallicRoughness.png"
    },
    {
      "uri": "textures/zard_1_normal.png"
    }
  ],
  "materials": [
    {
      "doubleSided": true,
      "extensions": {
        "KHR_materials_specular": {
          "specularColorFactor": [
            1.0,
            1.0,
            1.0
          ],
          "specularFactor": 0.0
        }
      },
      "name": "Disc_1",
      "pbrMetallicRoughness": {
        "baseColorFactor": [
          0.014139134381343963,
          0.014139134381343963,
          0.014139134381343963,
          1.0
        ],
        "metallicFactor": 0.0,
        "roughnessFactor": 0.6
      }
    },
    {
      "doubleSided": true,
      "name": "PELEH_1",
      "normalTexture": {
        "index": 1
      },
      "pbrMetallicRoughness": {
        "baseColorTexture": {
          "index": 0
        },
        "metallicFactor": 0.0
      }
    },
    {
      "doubleSided": true,
      "name": "badan_1",
      "normalTexture": {
        "index": 4
      },
      "pbrMetallicRoughness": {
        "baseColorTexture": {
          "index": 2
        },
        "metallicRoughnessTexture": {
          "index": 3
        }
      }
    },
    {
      "doubleSided": true,
      "name": "biroon_1",
      "normalTexture": {
        "index": 7
      },
      "pbrMetallicRoughness": {
        "baseColorTexture": {
          "index": 5
        },
        "metallicFactor": 0.0,
        "metallicRoughnessTexture": {
          "index": 6
        }
      }
    },
    {
      "doubleSided": true,
      "name": "kenar_peleh_1",
      "normalTexture": {
        "index": 10
      },
      "pbrMetallicRoughness": {
        "baseColorTexture": {
          "index": 8
        },
        "metallicFactor": 0.0,
        "metallicRoughnessTexture": {
          "index": 9
        }
      }
    },
    {
      "doubleSided": true,
      "emissiveFactor": [
        1.0,
        1.0,
        1.0
      ],
      "emissiveTexture": {
        "index": 13
      },
      "extensions": {
        "KHR_materials_emissive_strength": {
          "emissiveStrength": 10.0
        }
      },
      "name": "lamp_1",
      "pbrMetallicRoughness": {
        "baseColorTexture": {
          "index": 11
        },
        "metallicRoughnessTexture": {
          "index": 12
        }
      }
    },
    {
      "doubleSided": true,
      "emissiveFactor": [
        0.5942875254476966,
        0.5942875254476966,
        0.5942875254476966
      ],
      "emissiveTexture": {
        "index": 16
      },
      "name": "paye_toori_1",
      "normalTexture": {
        "index": 17
      },
      "pbrMetallicRoughness": {
        "baseColorTexture": {
          "index": 14
        },
        "metallicRoughnessTexture": {
          "index": 15
        }
      }
    },
    {
      "doubleSided": true,
      "name": "sim_1",
      "pbrMetallicRoughness": {
        "baseColorFactor": [
          0.005572829822086463,
          0.005572829822086463,
          0.005572829822086463,
          1.0
        ],
        "metallicFactor": 0.0,
        "roughnessFactor": 0.6
      }
    },
    {
      "doubleSided": true,
      "name": "toori_1",
      "normalTexture": {
        "index": 20
      },
      "pbrMetallicRoughness": {
        "baseColorTexture": {
          "index": 18
        },
        "metallicRoughnessTexture": {
          "index": 19
        }
      }
    },
    {
      "doubleSided": true,
      "name": "zard_1",
      "normalTexture": {
        "index": 23
      },
      "pbrMetallicRoughness": {
        "baseColorTexture": {
          "index": 21
        },
        "metallicRoughnessTexture": {
          "index": 22
        }
      }
    }
  ],
  "meshes": [
    {
      "name": "Object_0",
      "primitives": [
        {
          "attributes": {
            "NORMAL": 1,
            "POSITION": 0,
            "TEXCOORD_0": 2
          },
          "indices": 3,
          "material": 0,
          "mode": 4
        }
      ]
    },
    {
      "name": "Object_1",
      "primitives": [
        {
          "attributes": {
            "NORMAL": 5,
            "POSITION": 4,
            "TANGENT": 6,
            "TEXCOORD_0": 7
          },
          "indices": 8,
          "material": 1,
          "mode": 4
        }
      ]
    },
    {
      "name": "Object_2",
      "primitives": [
        {
          "attributes": {
            "NORMAL": 10,
            "POSITION": 9,
            "TANGENT": 11,
            "TEXCOORD_0": 12
          },
          "indices": 13,
          "material": 2,
          "mode": 4
        }
      ]
    },
    {
      "name": "Object_3",
      "primitives": [
        {
          "attributes": {
            "NORMAL": 15,
            "POSITION": 14,
            "TANGENT": 16,
            "TEXCOORD_0": 17
          },
          "indices": 18,
          "material": 3,
          "mode": 4
        }
      ]
    },
    {
      "name": "Object_4",
      "primitives": [
        {
          "attributes": {
            "NORMAL": 20,
            "POSITION": 19,
            "TANGENT": 21,
            "TEXCOORD_0": 22
          },
          "indices": 23,
          "material": 4,
          "mode": 4
        }
      ]
    },
    {
      "name": "Object_5",
      "primitives": [
        {
          "attributes": {
            "NORMAL": 25,
            "POSITION": 24,
            "TEXCOORD_0": 26
          },
          "indices": 27,
          "material": 5,
          "mode": 4
        }
      ]
    },
    {
      "name": "Object_6",
      "primitives": [
        {
          "attributes": {
            "NORMAL": 29,
            "POSITION": 28,
            "TANGENT": 30,
            "TEXCOORD_0": 31
          },
          "indices": 32,
          "material": 6,
          "mode": 4
        }
      ]
    },
    {
      "name": "Object_7",
      "primitives": [
        {
          "attributes": {
            "NORMAL": 34,
            "POSITION": 33,
            "TEXCOORD_0": 35
          },
          "indices": 36,
          "material": 7,
          "mode": 4
        }
      ]
    },
    {
      "name": "Object_8",
      "primitives": [
        {
          "attributes": {
            "NORMAL": 38,
            "POSITION": 37,
            "TANGENT": 39,
            "TEXCOORD_0": 40
          },
          "indices": 41,
          "material": 8,
          "mode": 4
        }
      ]
    },
    {
      "name": "Object_9",
      "primitives": [
        {
          "attributes": {
            "NORMAL": 43,
            "POSITION": 42,
            "TANGENT": 44,
            "TEXCOORD_0": 45
          },
          "indices": 46,
          "material": 9,
          "mode": 4
        }
      ]
    }
  ],
  "nodes": [
    {
      "children": [
        1
      ],
      "matrix": [
        1.0,
        0.0,
        0.0,
        0.0,
        0.0,
        2.220446049250313e-16,
        -1.0,
        0.0,
        0.0,
        1.0,
        2.220446049250313e-16,
        0.0,
        0.0,
        0.0,
        0.0,
        1.0
      ],
      "name": "Sketchfab_model"
    },
    {
      "children": [
        2,
        3,
        4,
        5,
        6,
        7,
        8,
        9,
        10,
        11
      ],
      "name": "Untitled 2.obj.cleaner.materialmerger.gles"
    },
    {
      "mesh": 0,
      "name": "Object_2"
    },
    {
      "mesh": 1,
      "name": "Object_3"
    },
    {
      "mesh": 2,
      "name": "Object_4"
    },
    {
      "mesh": 3,
      "name": "Object_5"
    },
    {
      "mesh": 4,
      "name": "Object_6"
    },
    {
      "mesh": 5,
      "name": "Object_7"
    },
    {
      "mesh": 6,
      "name": "Object_8"
    },
    {
      "mesh": 7,
      "name": "Object_9"
    },
    {
      "mesh": 8,
      "name": "Object_10"
    },
    {
      "mesh": 9,
      "name": "Object_11"
    }
  ],
  "samplers": [
    {
      "magFilter": 9729,
      "minFilter": 9987,
      "wrapS": 10497,
      "wrapT": 10497
    }
  ],
  "scene": 0,
  "scenes": [
    {
      "name": "Sketchfab_Scene",
      "nodes": [
        0
      ]
    }
  ],
  "textures": [
    {
      "sampler": 0,
      "source": 0
    },
    {
      "sampler": 0,
      "source": 1
    },
    {
      "sampler": 0,
      "source": 2
    },
    {
      "sampler": 0,
      "source": 3
    },
    {
      "sampler": 0,
      "source": 4
    },
    {
      "sampler": 0,
      "source": 5
    },
    {
      "sampler": 0,
      "source": 6
    },
    {
      "sampler": 0,
      "source": 7
    },
    {
      "sampler": 0,
      "source": 8
    },
    {
      "sampler": 0,
      "source": 9
    },
    {
      "sampler": 0,
      "source": 10
    },
    {
      "sampler": 0,
      "source": 11
    },
    {
      "sampler": 0,
      "source": 12
    },
    {
      "sampler": 0,
      "source": 13
    },
    {
      "sampler": 0,
      "source": 14
    },
    {
      "sampler": 0,
      "source": 15
    },
    {
      "sampler": 0,
      "source": 16
    },
    {
      "sampler": 0,
      "source": 17
    },
    {
      "sampler": 0,
      "source": 18
    },
    {
      "sampler": 0,
      "source": 19
    },
    {
      "sampler": 0,
      "source": 20
    },
    {
      "sampler": 0,
      "source": 21
    },
    {
      "sampler": 0,
      "source": 22
    },
    {
      "sampler": 0,
      "source": 23
    }
  ]
}
